HIERARCHY
ROOT Hips
{
	OFFSET -0.001795 -0.223333 0.028219
	CHANNELS 6 Xposition Yposition Zposition Zrotation Yrotation Xrotation 
	JOINT LeftUpLeg
	{
		OFFSET 0.069520 -0.091406 -0.006815
		CHANNELS 3 Zrotation Yrotation Xrotation
		JOINT LeftLeg
		{
			OFFSET 0.034277 -0.375199 -0.004496
			CHANNELS 3 Zrotation Yrotation Xrotation
			JOINT LeftFoot
			{
				OFFSET -0.013596 -0.397961 -0.043693
				CHANNELS 3 Zrotation Yrotation Xrotation
				JOINT LeftToe
				{
					OFFSET 0.026358 -0.055791 0.119288
					CHANNELS 3 Zrotation Yrotation Xrotation
					End Site
					{
						OFFSET 0.000000 0.000000 0.000000
					}
				}
			}
		}
	}
	JOINT RightUpLeg
	{
		OFFSET -0.067670 -0.090522 -0.004320
		CHANNELS 3 Zrotation Yrotation Xrotation
		JOINT RightLeg
		{
			OFFSET -0.038290 -0.382569 -0.008850
			CHANNELS 3 Zrotation Yrotation Xrotation
			JOINT RightFoot
			{
				OFFSET 0.015774 -0.398415 -0.042312
				CHANNELS 3 Zrotation Yrotation Xrotation
				JOINT RightToe
				{
					OFFSET -0.025372 -0.048144 0.123348
					CHANNELS 3 Zrotation Yrotation Xrotation
					End Site
					{
						OFFSET 0.000000 0.000000 0.000000
					}
				}
			}
		}
	}
	JOINT Spine
	{
		OFFSET -0.002533 0.108963 -0.026696
		CHANNELS 3 Zrotation Yrotation Xrotation
		JOINT Spine1
		{
			OFFSET 0.005487 0.135180 0.001092
			CHANNELS 3 Zrotation Yrotation Xrotation
			JOINT Spine2
			{
				OFFSET 0.001457 0.052922 0.025425
				CHANNELS 3 Zrotation Yrotation Xrotation
				JOINT Neck
				{
					OFFSET -0.002778 0.213870 -0.042857
					CHANNELS 3 Zrotation Yrotation Xrotation
					JOINT Head
					{
						OFFSET 0.005152 0.064970 0.051349
						CHANNELS 3 Zrotation Yrotation Xrotation
						End Site
						{
							OFFSET 0.000000 0.000000 0.000000
						}
					}
				}
				JOINT LeftShoulder
				{
					OFFSET 0.078845 0.121749 -0.034090
					CHANNELS 3 Zrotation Yrotation Xrotation
					JOINT LeftArm
					{
						OFFSET 0.090977 0.030469 -0.008868
						CHANNELS 3 Zrotation Yrotation Xrotation
						JOINT LeftForeArm
						{
							OFFSET 0.259612 -0.012772 -0.027456
							CHANNELS 3 Zrotation Yrotation Xrotation
							JOINT LeftHand
							{
								OFFSET 0.249234 0.008986 -0.001171
								CHANNELS 3 Zrotation Yrotation Xrotation
								End Site
								{
									OFFSET 0.000000 0.000000 0.000000
								}
							}
						}
					}
				}
				JOINT RightShoulder
				{
					OFFSET -0.081759 0.118833 -0.038615
					CHANNELS 3 Zrotation Yrotation Xrotation
					JOINT RightArm
					{
						OFFSET -0.096012 0.032551 -0.009143
						CHANNELS 3 Zrotation Yrotation Xrotation
						JOINT RightForeArm
						{
							OFFSET -0.253742 -0.013329 -0.021401
							CHANNELS 3 Zrotation Yrotation Xrotation
							JOINT RightHand
							{
								OFFSET -0.255298 0.007772 -0.005559
								CHANNELS 3 Zrotation Yrotation Xrotation
								End Site
								{
									OFFSET 0.000000 0.000000 0.000000
								}
							}
						}
					}
				}
			}
		}
	}
}
MOTION
Frames: 8
Frame Time: 0.050000
-0.038580 0.923536 0.428279 3.480685 -3.754542 -0.383649 7.191175 -0.187721 -5.878125 -5.750348 0.780009 4.592938 7.107265 15.684701 12.094585 0.000000 0.000000 0.000000 -15.967376 0.157605 -10.703041 8.222479 -1.028844 8.441081 -2.887483 -10.495881 10.367181 0.000000 0.000000 0.000000 8.931711 -4.352108 40.058090 -3.550078 1.411916 -26.543723 -3.040867 10.103226 20.991671 17.904271 -4.768188 -36.884028 0.000000 0.000000 0.000000 -16.163818 -25.813058 10.043005 -35.324902 -21.006056 0.667511 -26.653009 -80.869318 24.642532 0.000000 0.000000 0.000000 33.919740 13.157592 10.810200 40.954382 41.297436 7.322084 -4.957961 45.619648 0.785319 0.000000 0.000000 0.000000 
-0.039075 0.922698 0.427929 3.443358 -3.686172 -0.251543 7.221225 -0.199531 -6.241869 -5.660172 0.771155 4.932549 7.131874 15.712858 11.858681 0.000000 0.000000 0.000000 -15.827624 0.150315 -11.161931 8.097499 -1.024328 9.018010 -2.994788 -10.621242 10.070596 0.000000 0.000000 0.000000 9.046329 -4.427421 40.211455 -3.364405 1.370500 -26.646734 -2.929111 9.759850 21.021805 17.894017 -4.867953 -36.574499 0.000000 0.000000 0.000000 -15.459578 -26.315957 10.300740 -35.169589 -22.029667 0.894933 -16.083723 -80.309796 15.491912 0.000000 0.000000 0.000000 34.103507 13.121531 10.669313 42.287748 41.069355 7.670616 -3.783672 46.668655 1.334202 0.000000 0.000000 0.000000 
-0.039455 0.922589 0.427600 3.465912 -3.671494 -0.082878 7.299308 -0.208871 -6.627626 -5.787283 0.798564 5.237670 7.139884 15.727256 11.891235 0.000000 0.000000 0.000000 -15.995192 0.136940 -11.433335 8.389639 -1.078638 9.133856 -3.020106 -10.675723 10.106617 0.000000 0.000000 0.000000 9.106027 -4.462785 40.261013 -3.289128 1.353224 -26.614451 -2.746502 9.564158 21.017471 17.734288 -4.810494 -36.570711 0.000000 0.000000 0.000000 -14.672597 -26.474223 10.340356 -34.825397 -23.262724 1.162503 -6.566305 -79.866425 7.431692 0.000000 0.000000 0.000000 34.076855 12.867811 10.396762 43.235284 40.291707 7.664476 -3.231323 48.249024 1.696462 0.000000 0.000000 0.000000 
-0.039714 0.923072 0.427125 3.501396 -3.431480 0.225314 7.190800 -0.237294 -7.076339 -5.629919 0.768210 5.291520 7.025074 15.574043 12.072264 0.000000 0.000000 0.000000 -15.997276 0.133365 -11.465087 8.338923 -1.064578 8.663269 -3.117302 -10.891981 10.330967 0.000000 0.000000 0.000000 9.131257 -4.492645 39.989529 -3.094281 1.310871 -26.517840 -2.784409 9.336424 21.045878 17.740510 -4.983059 -35.885792 0.000000 0.000000 0.000000 -14.038043 -26.780833 10.454324 -34.470569 -24.090355 1.321058 0.642833 -79.579611 1.437111 0.000000 0.000000 0.000000 34.346734 12.658440 10.236694 43.618201 39.665129 7.516939 -2.770663 49.390253 1.991357 0.000000 0.000000 0.000000 
-0.039812 0.923538 0.426195 3.472608 -3.438709 0.384972 7.264517 -0.243391 -7.370138 -5.684621 0.779268 5.387446 7.013599 15.568277 12.284111 0.000000 0.000000 0.000000 -15.997838 0.133130 -11.649075 8.411666 -1.073975 8.562439 -3.095353 -10.909121 10.580415 0.000000 0.000000 0.000000 9.197253 -4.526328 40.022913 -2.992333 1.287160 -26.452636 -2.781800 9.282812 21.261577 17.789895 -5.030529 -35.856077 0.000000 0.000000 0.000000 -13.182408 -26.972692 10.463285 -34.243900 -25.108201 1.515646 6.173233 -79.460650 -3.137173 0.000000 0.000000 0.000000 34.117363 12.599937 10.133886 43.912676 39.472862 7.524842 -2.972833 49.544636 1.925671 0.000000 0.000000 0.000000 
-0.039631 0.923722 0.424593 3.521353 -3.258765 0.734815 7.161794 -0.276268 -7.996059 -5.602394 0.764935 5.553911 6.946627 15.485271 12.426130 0.000000 0.000000 0.000000 -16.052479 0.123829 -11.881108 8.379894 -1.063941 8.195189 -3.176629 -11.100842 10.821186 0.000000 0.000000 0.000000 9.301356 -4.603213 39.998217 -3.032579 1.295859 -26.242377 -2.960883 8.972542 21.276944 17.622539 -5.059248 -35.461136 0.000000 0.000000 0.000000 -12.464567 -27.422951 10.638450 -33.651825 -26.146064 1.695332 14.543726 -79.061637 -9.958504 0.000000 0.000000 0.000000 33.589030 12.651655 9.993145 44.141372 39.711966 7.743803 -3.562079 49.227856 1.637596 0.000000 0.000000 0.000000 
-0.039160 0.923437 0.422329 3.479766 -3.211573 0.920056 7.290325 -0.286671 -8.584055 -5.775382 0.801837 5.944989 6.954947 15.500828 12.426680 0.000000 0.000000 0.000000 -16.010778 0.116104 -12.288853 8.331611 -1.060817 8.318106 -3.211145 -11.187172 10.934515 0.000000 0.000000 0.000000 9.394315 -4.709904 40.494603 -3.204525 1.333065 -26.371144 -3.037147 8.569927 21.421959 17.446185 -4.965557 -35.717741 0.000000 0.000000 0.000000 -11.966869 -27.706054 10.783225 -33.321237 -27.404949 1.939307 20.504859 -78.937314 -14.732909 0.000000 0.000000 0.000000 33.050946 12.854419 9.895179 44.157778 40.261518 8.034329 -4.302648 48.187746 1.223064 0.000000 0.000000 0.000000 
-0.038589 0.923058 0.419775 3.530707 -3.065611 1.210634 7.179201 -0.316119 -9.099496 -5.720161 0.788602 5.932065 6.922500 15.461455 12.433652 0.000000 0.000000 0.000000 -16.178270 0.090886 -12.735240 8.447710 -1.084670 8.310667 -3.293480 -11.361258 11.089984 0.000000 0.000000 0.000000 9.404436 -4.775353 40.736315 -3.151087 1.321408 -26.162213 -3.292759 8.234317 21.488405 17.006800 -4.700242 -36.062123 0.000000 0.000000 0.000000 -11.747539 -28.271816 11.070920 -32.614488 -28.909524 2.213831 25.849992 -78.274617 -18.852439 0.000000 0.000000 0.000000 32.479309 13.153742 9.915367 43.965729 41.067653 8.365846 -5.637837 46.619197 0.567124 0.000000 0.000000 0.000000 
